PathFileType	4	(X/Y/Z)	C:\Data Capture\Research\archery\Archery pilot2.trc
DataRate	CameraRate	NumFrames	NumMarkers	Units	OrigDataRate	OrigDataStartFrame	OrigNumFrames
100.00	100.00	      38	3	mm	100.00	188	      1500
Frame#	Time	Marker 1			Marker 2			Marker 3			
		X1	Y1	Z1	X2	Y2	Z2	X3	Y3	Z3	

188	1.870	540.27155	543.59155	1068.52991	573.39526	532.72797	974.78674	470.86111	490.72159	956.65619	
189	1.880	545.43018	544.52429	1078.63391	580.15778	533.93011	985.43494	477.92001	491.94458	965.40015	
190	1.890	550.42902	545.48175	1088.78088	586.74402	535.10730	996.15710	484.84406	493.08685	974.27899	
191	1.900	555.27197	546.45209	1098.97925	593.15656	536.26080	1006.96307	491.63971	494.15823	983.30817	
192	1.910	559.96710	547.40826	1109.25964	599.40649	537.38269	1017.88416	498.31335	495.17935	992.50342	
193	1.920	564.52856	548.31683	1119.66809	605.50848	538.45593	1028.96521	504.87149	496.17365	1001.87891	
194	1.930	568.97253	549.14764	1130.25159	611.47449	539.45972	1040.25378	511.32080	497.15845	1011.44897	
195	1.940	573.30719	549.87982	1141.04468	617.31213	540.37830	1051.78931	517.66888	498.14175	1021.22699	
196	1.950	577.52771	550.50714	1152.06458	623.02698	541.20831	1063.59509	523.92487	499.12265	1031.22351	
197	1.960	581.61963	551.04431	1163.31421	628.62262	541.96088	1075.67554	530.09808	500.09161	1041.44470	
198	1.970	585.56433	551.52661	1174.78552	634.09680	542.65857	1088.01831	536.19153	501.03210	1051.89465	
199	1.980	589.34467	551.99921	1186.46313	639.43530	543.33063	1100.60291	542.19604	501.92746	1062.57727	
200	1.990	592.94922	552.49982	1198.33582	644.61182	544.00708	1113.41211	548.09076	502.77023	1073.49866	
201	2.000	596.37183	553.04541	1210.40515	649.60083	544.71277	1126.44031	553.85120	503.56876	1084.66785	
202	2.010	599.60858	553.63049	1222.68884	654.38818	545.46259	1139.69934	559.45813	504.34561	1096.09656	
203	2.020	602.65558	554.23578	1235.21179	658.96930	546.25720	1153.21582	564.90125	505.12973	1107.79468	
204	2.030	605.50482	554.83813	1247.99634	663.34296	547.08459	1167.02393	570.17584	505.94717	1119.76855	
205	2.040	608.13757	555.42059	1261.05225	667.50714	547.92676	1181.15540	575.27966	506.81412	1132.02075	
206	2.050	610.52319	555.97894	1274.37317	671.45789	548.76587	1195.63025	580.21118	507.73413	1144.55066	
207	2.060	612.63116	556.52032	1287.94043	675.18597	549.59180	1210.44775	584.96692	508.69922	1157.35120	
208	2.070	614.44574	557.05371	1301.73010	678.67169	550.40790	1225.58179	589.53870	509.69467	1170.40613	
209	2.080	615.96436	557.58679	1315.71191	681.88544	551.22705	1240.98438	593.91046	510.70505	1183.69055	
210	2.090	617.18701	558.12939	1329.84338	684.79645	552.06354	1256.59521	598.05939	511.71591	1197.17346	
211	2.100	618.11353	558.69476	1344.07129	687.37836	552.92920	1272.35132	601.96368	512.71185	1210.82227	
212	2.110	618.74603	559.29395	1358.34363	689.61310	553.83228	1288.19458	605.60956	513.68054	1224.60413	
213	2.120	619.08954	559.92688	1372.62134	691.49701	554.77460	1304.07532	608.98694	514.61987	1238.48523	
214	2.130	619.14954	560.57947	1386.88013	693.04028	555.75037	1319.95435	612.08423	515.54004	1252.43127	
215	2.140	618.92981	561.23053	1401.10291	694.25824	556.74854	1335.80334	614.89050	516.45844	1266.41064	
216	2.150	618.43219	561.85992	1415.27344	695.16431	557.75787	1351.60364	617.39899	517.39471	1280.39478	
217	2.160	617.65802	562.45239	1429.37219	695.77057	558.77185	1367.33777	619.60730	518.36676	1294.35425	
218	2.170	616.61035	563.00232	1443.37280	696.09186	559.79150	1382.98181	621.51300	519.38782	1308.26001	
219	2.180	615.29742	563.52118	1457.23743	696.14404	560.82129	1398.49951	623.10944	520.46710	1322.08533	
220	2.190	613.73309	564.03394	1470.92188	695.93457	561.86200	1413.84363	624.39081	521.60565	1335.80420	
221	2.200	611.93573	564.56329	1484.38611	695.45789	562.90472	1428.96570	625.36285	522.78503	1349.38501	
222	2.210	609.92523	565.11841	1497.60156	694.70477	563.93396	1443.82813	626.04742	523.96832	1362.78894	
223	2.220	607.71875	565.69476	1510.55054	693.67700	564.93433	1458.40881	626.47534	525.11957	1375.98022	
224	2.230	605.33044	566.27686	1523.22302	692.38971	565.89380	1472.69983	626.67706	526.21893	1388.93481	
225	2.240	602.77435	566.84442	1535.61462	690.86273	566.80188	1486.70215	626.67871	527.25952	1401.64258	
